<svg width="201" height="29" viewBox="0 0 201 29" fill="none" xmlns="http://www.w3.org/2000/svg">
<path d="M35.1509 7.02615C32.4762 7.02615 30.1802 8.05368 28.64 9.77071L27.6613 7.63806H22.6629V28.3218H29.7873V17.2766C29.7873 14.644 31.0656 13.0925 33.2872 13.0925C35.0801 13.0925 35.9847 14.2865 35.9847 16.6941V28.3218H43.109V15.708C43.109 10.44 39.9545 7.02615 35.1509 7.02615Z" fill="#F05423"/>
<path d="M107.642 14.8378C105.677 14.487 104.095 14.2135 104.095 13.0361C104.095 12.0777 104.863 11.5125 106.005 11.5125C107.295 11.5125 108.183 12.1266 108.183 13.4471H114.855C114.774 9.25586 111.36 6.45425 106.093 6.45425C100.794 6.45425 97.2604 9.13078 97.2604 13.2767C97.2604 18.2935 101.512 19.2615 104.719 19.7813C106.707 20.1097 108.272 20.4499 108.272 21.6432C108.272 22.7122 107.284 23.2437 106.242 23.2437C104.891 23.2437 103.838 22.5475 103.838 21.0349H96.9794C97.0446 25.5163 100.471 28.4936 106.108 28.4936C111.605 28.4936 115.253 25.6651 115.253 21.3424C115.252 16.0971 110.908 15.4178 107.642 14.8378Z" fill="#F05423"/>
<path d="M127.544 22.3625C125.063 22.3625 123.258 20.4159 123.258 17.7209C123.258 15.026 125.039 13.1233 127.544 13.1233C129.401 13.1233 130.978 14.2178 131.577 15.9054H138.517C137.738 10.4035 133.38 6.73914 127.566 6.73914C120.888 6.73914 116.121 11.2982 116.121 17.6986C116.121 24.099 120.91 28.7459 127.544 28.7459C133.368 28.7459 137.788 24.9611 138.594 19.3441H131.594C131.005 21.1915 129.455 22.3625 127.544 22.3625Z" fill="#F05423"/>
<path d="M156.38 9.21511C154.671 7.80598 152.496 6.99246 150.059 6.99246C143.735 6.99246 139.214 11.5518 139.214 17.9576C139.214 24.3857 143.735 29 150.059 29C152.462 29 154.607 28.2091 156.301 26.8386L156.911 28.3016H162.42V7.61784H157.109L156.38 9.21511ZM151.011 22.6917C148.342 22.6917 146.381 20.6752 146.381 17.9742C146.381 15.2896 148.326 13.2731 151.011 13.2731C153.68 13.2731 155.641 15.2896 155.641 17.9742C155.642 20.6752 153.681 22.6917 151.011 22.6917Z" fill="#F05423"/>
<path d="M170.989 0H163.864V28.1532H170.989V0Z" fill="#F05423"/>
<path d="M199.943 23.0757C199.653 22.6181 199.252 22.2422 198.776 21.9838C198.3 21.7253 197.766 21.5929 197.225 21.5992C196.644 21.5992 196.116 21.7332 195.643 22.001C195.18 22.2582 194.79 22.6279 194.509 23.0757C194.231 23.524 194.084 24.0408 194.084 24.5681C194.084 25.0954 194.231 25.6122 194.509 26.0605C194.788 26.5132 195.178 26.8869 195.643 27.1458C196.116 27.4136 196.644 27.5476 197.225 27.5476C197.806 27.5476 198.334 27.4136 198.807 27.1458C199.272 26.8866 199.662 26.513 199.941 26.0605C200.219 25.6122 200.366 25.0954 200.366 24.5681C200.366 24.0408 200.219 23.524 199.941 23.0757H199.943Z" fill="#F05423"/>
<path d="M54.7388 20.7139C54.6575 20.4388 54.6172 20.1532 54.6194 19.8663V13.3958H59.5508V8.0023H54.4426V2.05753H53.0041L43.8941 11.7584V13.3958H47.6145V21.0678C47.6145 25.5861 50.3474 28.3349 54.8426 28.3349H59.6614V25.1461C58.4728 25.0365 57.3514 24.5459 56.4643 23.7472C55.5772 22.9485 54.972 21.8845 54.7388 20.7139Z" fill="#F05423"/>
<path d="M89.1114 9.97798L87.9995 7.68235H83.2275V28.3665H90.3515V17.8481C90.3515 17.0169 90.4578 16.3377 90.6792 15.7973C91.0093 14.403 91.7665 13.1465 92.8452 12.2032C93.9238 11.2599 95.27 10.677 96.6959 10.5357V7.58243H94.8088C92.3477 7.58243 90.5708 8.29107 89.1114 9.97798Z" fill="#F05423"/>
<path d="M74.9496 21.4792C74.4422 22.0052 73.8339 22.4236 73.1613 22.7094C72.4886 22.9951 71.7652 23.1424 71.0343 23.1424C70.3035 23.1424 69.5801 22.9951 68.9074 22.7094C68.2347 22.4236 67.6265 22.0052 67.1191 21.4792L66.9625 21.318H60.7396L61.0673 22.0621C61.916 23.9988 63.3105 25.6463 65.0805 26.8031C66.8505 27.9599 68.9191 28.576 71.0336 28.576C73.1481 28.576 75.2168 27.9599 76.9867 26.8031C78.7567 25.6463 80.1513 23.9988 80.9999 22.0621L81.3277 21.318H75.1062L74.9496 21.4792Z" fill="#F05423"/>
<path d="M81.0616 13.4514C80.0847 11.1367 78.3372 9.23115 76.1154 8.05812C73.8937 6.8851 71.3345 6.51681 68.8721 7.01575C66.4097 7.51468 64.1958 8.85011 62.6059 10.7955C61.016 12.7408 60.148 15.1763 60.1493 17.6887C60.1492 18.221 60.1876 18.7526 60.2644 19.2793L60.3895 20.1328H81.6777L81.8028 19.2793C81.8796 18.7526 81.9181 18.221 81.918 17.6887C81.9205 16.233 81.6292 14.7918 81.0616 13.4514ZM75.6352 14.7567H73.0398C72.4718 14.3028 71.7664 14.0555 71.0393 14.0555C70.3122 14.0555 69.6067 14.3028 69.0388 14.7567H66.4321C66.9255 13.9837 67.6057 13.3474 68.41 12.9066C69.2142 12.4658 70.1165 12.2348 71.0336 12.2348C71.9507 12.2348 72.853 12.4658 73.6573 12.9066C74.4615 13.3474 75.1417 13.9837 75.6352 14.7567Z" fill="#F05423"/>
<path d="M186.525 21.4083C186.017 21.9344 185.409 22.3528 184.737 22.6385C184.064 22.9243 183.341 23.0716 182.61 23.0716C181.879 23.0716 181.155 22.9243 180.483 22.6385C179.81 22.3528 179.202 21.9344 178.694 21.4083L178.538 21.2471H172.315L172.643 21.9912C173.491 23.9279 174.886 25.5754 176.656 26.7322C178.426 27.8891 180.494 28.5052 182.609 28.5052C184.723 28.5052 186.792 27.8891 188.562 26.7322C190.332 25.5754 191.727 23.9279 192.575 21.9912L192.903 21.2471H186.681L186.525 21.4083Z" fill="#F05423"/>
<path d="M192.637 13.3805C191.66 11.0658 189.912 9.16028 187.691 7.98726C185.469 6.81424 182.91 6.44595 180.447 6.94489C177.985 7.44382 175.771 8.77924 174.181 10.7246C172.591 12.67 171.723 15.1054 171.725 17.6178C171.724 18.1501 171.763 18.6817 171.84 19.2084L171.965 20.0619H193.253L193.378 19.2084C193.455 18.6817 193.493 18.1501 193.493 17.6178C193.496 16.1622 193.205 14.721 192.637 13.3805ZM187.21 14.6859H184.615C184.047 14.2319 183.342 13.9846 182.615 13.9846C181.888 13.9846 181.182 14.2319 180.614 14.6859H178.007C178.501 13.9128 179.181 13.2765 179.985 12.8358C180.79 12.395 181.692 12.1639 182.609 12.1639C183.526 12.1639 184.428 12.395 185.233 12.8358C186.037 13.2765 186.717 13.9128 187.21 14.6859Z" fill="#F05423"/>
<path d="M14.8002 21.4604C14.2928 21.9865 13.6846 22.4049 13.012 22.6907C12.3393 22.9765 11.6159 23.1238 10.885 23.1238C10.1541 23.1238 9.43073 22.9765 8.75804 22.6907C8.08535 22.4049 7.47715 21.9865 6.96976 21.4604L6.81316 21.2988H0.590591L0.917983 22.0429C1.76671 23.9796 3.16131 25.627 4.9313 26.7839C6.70128 27.9407 8.76997 28.5567 10.8845 28.5567C12.999 28.5567 15.0676 27.9407 16.8376 26.7839C18.6076 25.627 20.0022 23.9796 20.851 22.0429L21.1783 21.2988H14.9568L14.8002 21.4604Z" fill="#F05423"/>
<path d="M20.9126 13.4327C19.9356 11.1181 18.188 9.2127 15.9663 8.03979C13.7445 6.86688 11.1854 6.49865 8.72312 6.99756C6.26081 7.49647 4.0469 8.8318 2.45695 10.777C0.867 12.7223 -0.00108781 15.1576 -5.24807e-05 17.67C-0.000132061 18.2022 0.0383533 18.7338 0.115101 19.2605L0.240176 20.1141H21.5288L21.6538 19.2605C21.7304 18.7338 21.7689 18.2022 21.769 17.67C21.7715 16.2143 21.4802 14.7731 20.9126 13.4327ZM15.4858 14.7397H12.8905C12.3225 14.2858 11.617 14.0385 10.89 14.0385C10.1629 14.0385 9.45743 14.2858 8.88948 14.7397H6.2831C6.77648 13.9667 7.45668 13.3304 8.26089 12.8896C9.06509 12.4488 9.96739 12.2178 10.8845 12.2178C11.8016 12.2178 12.7039 12.4488 13.5081 12.8896C14.3123 13.3304 14.9925 13.9667 15.4858 14.7397Z" fill="#F05423"/>
</svg>
